<svg width="32" height="32" xmlns="http://www.w3.org/2000/svg">
 <title>file_type_light_config</title>

 <g>
  <title>Layer 1</title>
  <path id="svg_1" fill="#ffffff" d="m23.265,24.381l0.9,-0.894c4.164,0.136 4.228,-0.01 4.411,-0.438l1.144,-2.785l0.085,-0.264l-0.093,-0.231c-0.049,-0.122 -0.2,-0.486 -2.8,-2.965l0,-1.304c3,-2.89 2.936,-3.038 2.765,-3.461l-1.139,-2.814c-0.171,-0.422 -0.236,-0.587 -4.37,-0.474l-0.9,-0.93a20.166,20.166 0 0 0 -0.141,-4.106l-0.116,-0.263l-2.974,-1.3c-0.438,-0.2 -0.592,-0.272 -3.4,2.786l-1.262,-0.019c-2.891,-3.086 -3.028,-3.03 -3.461,-2.855l-2.765,1.118c-0.433,0.175 -0.586,0.237 -0.418,4.437l-0.893,0.89c-4.162,-0.136 -4.226,0.012 -4.407,0.438l-1.146,2.786l-0.09,0.267l0.094,0.232c0.049,0.12 0.194,0.48 2.8,2.962l0,1.3c-3,2.89 -2.935,3.038 -2.763,3.462l1.138,2.817c0.174,0.431 0.236,0.584 4.369,0.476l0.9,0.935a20.243,20.243 0 0 0 0.137,4.1l0.116,0.265l2.993,1.308c0.435,0.182 0.586,0.247 3.386,-2.8l1.262,0.016c2.895,3.09 3.043,3.03 3.466,2.859l2.759,-1.115c0.436,-0.173 0.588,-0.234 0.413,-4.436zm-11.858,-6.524a4.957,4.957 0 1 1 6.488,2.824a5.014,5.014 0 0 1 -6.488,-2.824z"/>
 </g>
</svg>