<svg width="32" height="32" xmlns="http://www.w3.org/2000/svg" fill="none">

 <g>
  <title>Layer 1</title>
  <path stroke="#ffffff" fill="none" id="svg_1" stroke-linejoin="round" stroke-linecap="round" stroke-width="2" d="m16.4878,16l0.01976,0m-0.01976,-11.85366l0.01976,0m-0.01976,23.70732l0.01976,0m1.95585,-11.85366c0,1.09113 -0.88448,1.97561 -1.97561,1.97561c-1.09113,0 -1.97561,-0.88448 -1.97561,-1.97561c0,-1.09113 0.88448,-1.97561 1.97561,-1.97561c1.09113,0 1.97561,0.88448 1.97561,1.97561zm0,11.85366c0,1.09113 -0.88448,1.97561 -1.97561,1.97561c-1.09113,0 -1.97561,-0.88448 -1.97561,-1.97561c0,-1.09113 0.88448,-1.97561 1.97561,-1.97561c1.09113,0 1.97561,0.88448 1.97561,1.97561zm0,-23.70732c0,1.09109 -0.88448,1.97561 -1.97561,1.97561c-1.09113,0 -1.97561,-0.88452 -1.97561,-1.97561c0,-1.09109 0.88448,-1.97561 1.97561,-1.97561c1.09113,0 1.97561,0.88452 1.97561,1.97561z"/>
 </g>
</svg>