<svg width="32" height="32" xmlns="http://www.w3.org/2000/svg" version="1.1">
 <g>
  <title>Layer 1</title>
  <g id="icomoon-ignore"/>
  <path stroke="#ffffff" d="m21.886,5.115c3.521,0 6.376,2.855 6.376,6.376c0,1.809 -0.754,3.439 -1.964,4.6l-10.297,10.349l-10.484,-10.536c-1.1,-1.146 -1.778,-2.699 -1.778,-4.413c0,-3.522 2.855,-6.376 6.376,-6.376c2.652,0 4.925,1.62 5.886,3.924c0.961,-2.304 3.234,-3.924 5.886,-3.924l-0.001,0zm0,-1.066c-2.345,0 -4.499,1.089 -5.886,2.884c-1.386,-1.795 -3.54,-2.884 -5.886,-2.884c-4.104,0 -7.442,3.339 -7.442,7.442c0,1.928 0.737,3.758 2.075,5.152l11.253,11.309l11.053,-11.108c1.46,-1.402 2.275,-3.308 2.275,-5.352c0,-4.104 -3.339,-7.442 -7.442,-7.442l0,0l0,-0.001z" fill="#ffffff" id="svg_1"/>
  <path stroke="#ffffff" d="m16.19804,9.1062c0,0 0,0 -0.13202,0c0,0 0,0 0,-0.13645c0,0 -0.17069,0.09648 -0.26404,0c-0.09335,-0.09648 0.09335,-0.17641 0,-0.27289c-0.09335,-0.09648 -0.13202,-0.13645 -0.13202,-0.13645c0,0 0,0 0,0c0,-0.13645 -0.13202,-0.13645 -0.13202,-0.13645c0,-0.13645 0,-0.13645 0,-0.13645c0,0 0.09335,-0.03996 0,-0.13645c-0.09335,-0.09648 -0.13202,0 -0.13202,0c0,0 0,-0.13645 0,-0.13645c0,0 0,-0.13645 -0.13202,-0.13645c0,0 0,0 0,-0.13645c0,0 0,0 0,-0.13645c0,0 0,0 -0.13202,0c0,0 0,-0.13645 0,-0.13645c0,0 0,-0.13645 0,-0.13645c0,0 -0.13202,0 -0.13202,-0.13645c0,0 0,0 0,0c-0.13202,0 -0.13202,-0.13645 -0.13202,-0.13645c0,0 0,-0.13645 0,-0.13645c0,-0.13645 -0.13202,-0.13645 -0.13202,-0.13645c0,0 0,0 0,0c0,-0.13645 0,-0.13645 -0.13202,-0.13645c0,0 0,0 0,0c0,-0.13645 -0.13202,-0.13645 -0.13202,-0.13645c0,0 0,-0.13645 0,-0.13645c0,0 -0.13202,0 -0.13202,0c0,0 0,0 -0.13202,-0.13645c0,0 0,0 -0.13202,0c0,0 0.09335,-0.03996 0,-0.13645c-0.09335,-0.09648 -0.13202,0 -0.13202,0c-0.13202,0 -0.13202,-0.13645 -0.13202,-0.13645c0,0 -0.13202,0 -0.13202,0c0,0 0,0 0,0c0,0 -0.13202,0 -0.13202,0c0,0 0,0 -0.13202,-0.13645c0,0 0,0 -0.13202,0c0,0 -0.13202,0 -0.13202,0c-0.13202,0 -0.13202,-0.13645 -0.26405,-0.13645c0,0 -0.13202,0 -0.26404,0c0,0 -0.09155,-0.0626 -0.26405,-0.13645c-0.12197,-0.05222 -0.13202,0 -0.13202,0c-0.13202,0 -0.13202,0 -0.13202,0c0,0 -0.03867,-0.03996 -0.13202,-0.13645c-0.09335,-0.09648 -0.26404,0 -0.39607,0c-0.13202,0 -0.26404,0 -0.39607,-0.13645c0,0 0,0 -0.13202,0c0,0 0,0 0,0c0,0 -0.13202,0 -0.13202,0c0,0 -0.13202,0 -0.13202,0c-0.13202,0 -0.13202,0 -0.13202,0c-0.13202,0 -0.13202,0 -0.13202,0c0,0 -0.13202,0 -0.13202,0c0,0 -0.13202,0 -0.13202,0c-0.13202,0 -0.13202,0 -0.26404,0c0,0 0,0 0,0c0,0 -0.13202,0 -0.13202,0c0,0 -0.13202,0 -0.26404,0c0,0 -0.13202,0 -0.13202,0c0,0 -0.13202,0 -0.13202,0c0,0 0,0 0,0c-0.13202,0 -0.13202,0 -0.13202,0c-0.13202,0 -0.13202,0 -0.26404,0.13645c0,0 -0.13202,0 -0.13202,0c0,0 0,0 -0.13202,0c0,0 0,0 0,0c-0.13202,0 -0.13202,0 -0.13202,0c0,0 -0.13202,0 -0.13202,0c0,0 0,0 -0.13202,0c0,0 0,0 0,0c0,0 -0.13202,0 -0.13202,0.13645c0,0 0,0 -0.13202,0c0,0 0,0 0,0c0,0 -0.13202,0 -0.13202,0c0,0 0,0 0,0c-0.13202,0 -0.13202,0 -0.13202,0c0,0 0,0 -0.13202,0.13645c0,0 0,0 -0.13202,0c0,0 0,0 0,0c0,0 -0.13202,0 -0.13202,0c0,0 0,0.13645 0,0.13645c-0.13202,0 -0.13202,0 -0.13202,0c0,0 -0.13202,0 -0.13202,0c0,0.13645 0,0.13645 0,0.13645c0,0 0,0 -0.13202,0c0,0 0,0 0,0c0,0.13645 -0.13202,0.13645 -0.13202,0.13645c-0.13202,0 -0.13202,0.13645 -0.13202,0.13645c-0.13202,0 -0.03867,0.03996 -0.13202,0.13645c-0.09335,0.09648 -0.26405,0 -0.26405,0.13645c0,0 -0.13202,0 -0.13202,0c0,0.13645 -0.13202,0.13645 -0.13202,0.13645c0,0 0,0 -0.13202,0c0,0 0,0.13645 -0.13202,0.13645c0,0 0,0 0,0c0,0 0,0.13645 0,0.13645c0,0 -0.13202,0 -0.13202,0c0,0 0,0 0,0c0,0.13645 0,0.13645 0,0.13645c-0.13202,0 -0.13202,0 -0.13202,0c0,0 0,0.13645 0,0.13645c-0.13202,0 -0.03867,0.03996 -0.13202,0.13645c-0.09335,0.09648 -0.13202,0.13645 -0.13202,0.13645c-0.13202,0.13645 -0.13202,0.13645 -0.26405,0.27289c0,0 0.09335,0.03996 0,0.13645c-0.09335,0.09648 -0.13202,0 -0.13202,0.13645c0,0 -0.13202,0 -0.13202,0.13645c0,0 0,0 0,0c0,0 0,0 0,0c0,0 0,0.13645 0,0.13645c0,0 -0.13202,0.13645 -0.13202,0.13645c0,0 0,0.13645 -0.13202,0.13645c0,0 0,0.13645 0,0.13645c0,0 0,0.13645 0,0.13645c0,0 -0.13202,0.13645 -0.13202,0.13645c0,0 0,0 0,0.13645c0,0 0,0 0,0.13645c0,0 0,0 0,0c0,0 -0.13202,0 -0.13202,0.13645c0,0 0,0 0,0c0,0 0,0.13645 0,0.13645c0,0 0,0 0,0c0,0.13645 0,0.13645 0,0.13645c0,0 -0.13202,0.13645 -0.13202,0.13645c0,0 0,0.13645 0,0.13645c0,0 0,0.13645 0,0.13645c0,0 0,0 0,0.13645c0,0 0,0 0,0c0,0.13645 0,0.27289 0,0.27289c0,0 0,0.13645 0,0.13645c0,0 0,0 0,0.13645c0,0 0,0 0,0c0,0 0,0 0,0.13645c0,0 0,0 0,0c0,0 0,0.13645 0,0.13645c0,0 0,0 0,0.13645c0,0 0,0 0,0c0,0.13645 0,0.13645 0,0.27289c0,0 0,0 0,0.13645c0,0 0,0 0,0c0,0 0,0.13645 0,0.13645c0,0 0,0.13645 0,0.13645c0,0 0,0 0,0.13645c0,0 0,0 0,0c0,0.13645 0,0.13645 0,0.13645c0,0 0,0 0,0.13645c0,0 0,0 0,0c0,0 0,0.13645 0,0.13645c0,0 0,0 0,0c0,0.13645 0,0.13645 0,0.13645c0,0 0,0.13645 0,0.13645c0,0 0,0.13645 0,0.13645c0.13202,0 0.13202,0.13645 0.13202,0.13645c0,0 0,0.13645 0,0.13645c0,0 0,0.13645 0,0.13645c0,0 0,0 0,0.13645c0,0 0.13202,0 0.13202,0.13645c0,0 0,0 0,0c0,0.13645 0,0.13645 0,0.27289c0,0 -0.09335,0.03996 0,0.13645c0.09335,0.09648 0.13202,0 0.13202,0c0,0.13645 0,0.13645 0,0.13645c0,0 0,0.13645 0,0.13645c0,0 0,0 0,0c0.13202,0 0.13202,0.13645 0.13202,0.13645c0,0 0.13202,0.13645 0.13202,0.13645c0.13202,0.13645 0.17069,0.03996 0.26405,0.13645c0.09335,0.09648 0,0.13645 0,0.13645c0,0 0,0.13645 0.13202,0.13645c0,0 0,0 0,0c0,0.13645 0.03867,0.03996 0.13202,0.13645c0.09335,0.09648 0,0.13645 0,0.13645c0,0.13645 0,0.13645 0,0.13645c0.13202,0 0.13202,0 0.13202,0c0,0 -0.09335,0.03996 0,0.13645c0.09335,0.09648 0.13202,0.13645 0.13202,0.13645c0.13202,0.13645 0.13202,0.27289 0.26404,0.40934c0,0 0.03867,-0.09648 0.13202,0c0.09335,0.09648 0,0.13645 0,0.13645c0,0 0,0 0,0.13645c0,0 0.03867,0.03996 0.13202,0.13645c0.09335,0.09648 0.13202,0.13645 0.13202,0.13645c0,0 -0.09335,0.03996 0,0.13645c0.09335,0.09648 0.13202,0 0.13202,0c0,0 0,0 0,0.13645c0,0 0,0 0,0c0.13202,0 0.13202,0.13645 0.13202,0.13645c0,0 0,0.13645 0.13202,0.13645c0,0 0,0 0,0c0,0.13645 0.03867,0.03996 0.13202,0.13645c0.09335,0.09648 0,0.13645 0,0.13645c0.13202,0 0.13202,0.13645 0.13202,0.13645c0,0 0.13202,0 0.13202,0.13645c0,0 0,0.13645 0.13202,0.13645c0,0 0,0 0,0c0,0 0,0 0,0.13645c0,0 0.03867,-0.09648 0.13202,0c0.09335,0.09648 0,0.13645 0,0.13645c0,0 0,0 0,0c0,0 0.13202,0.13645 0.13202,0.13645c0,0 0,0.13645 0.13202,0.13645c0,0 0,0 0,0c0.13202,0 0.13202,0.13645 0.13202,0.13645c0,0 0.13202,0 0.13202,0.13645c0,0 0,0.13645 0.13202,0.13645c0,0 0,0 0.13202,0.13645c0,0 0.03867,-0.09648 0.13202,0c0.09336,0.09648 0.03867,0.03997 0.13202,0.13645c0.09335,0.09648 0.03867,0.03996 0.13202,0.13645c0.09335,0.09648 0,0.13645 0.13202,0.13645c0,0 0,0 0,0c0,0 0.13202,0.13645 0.13202,0.13645c0,0 0.13202,0 0.13202,0.13645c0,0 0,0 0.13202,0c0,0 0,0.13645 0,0.13645c0,0 0.13202,0 0.13202,0c0,0.13645 0.13202,0.13645 0.13202,0.13645c0,0 0,0 0,0c0,0 0.13202,0.13645 0.13202,0.13645c0.13202,0 0.13202,0 0.13202,0.13645c0,0 0.13202,0 0.13202,0c0,0.13645 0.13202,0.13645 0.13202,0.13645c0,0 -0.09335,0.03996 0,0.13645c0.09335,0.09648 0.13202,0 0.13202,0c0,0 0.13202,0.13645 0.13202,0.13645c0,0 0.13202,0.13645 0.13202,0.13645c0,0 0.13202,0 0.13202,0.13645c0,0 0,0 0.13202,0.13645c0,0 0.13202,0 0.13202,0c0,0.13645 0,0.13645 0.13202,0.13645c0,0 0,0 0,0.13645c0,0 0.13202,0 0.13202,0c0,0.13645 0,0.13645 0.13202,0.13645c0,0 0,0 0,0c0.13202,0.13645 0.13202,0.13645 0.13202,0.13645c0,0 0.03867,0.03996 0.13202,0.13645c0.09335,0.09648 0.26404,0 0.26404,0.13645c0,0 0.13202,0 0.13202,0c0,0 0,0.13645 0,0.13645c0,0 0,0 0,0c0.13202,0.13645 0.13202,0.13645 0.13202,0.13645c0,0 0.13202,0 0.13202,0c0,0 0.03867,0.17641 0.13202,0.27289c0.09335,0.09648 0.2446,0.16007 0.39607,0.27289c0.23949,0.1784 0.40612,0.22068 0.52809,0.27289c0.1725,0.07384 0.26405,0.13645 0.39607,0.27289c0,0 0,0 0,0c0,0 0.13202,0 0.13202,0.13645c0,0 0,0 0.13202,0c0,0 0,0 0,0.13645c0,0 0,0 0.13202,0c0,0 0,0 0,0.13645c0,0 0.03867,-0.09648 0.13202,0c0.09336,0.09648 0,0.13645 0,0.13645c0.13202,0 0.13202,0.13645 0.13202,0.13645c0.13202,0.13645 0.13202,0.13645 0.13202,0.13645c0,0.13645 0,0.13645 0.13202,0.13645c0,0 0,0.13645 0,0.13645c0,0 0.13202,0.13645 0.13202,0.13645c0,0 0,0.13645 0.13202,0.13645c0,0 -0.09335,0.03996 0,0.13645c0.09335,0.09648 0.13202,0 0.13202,0.13645c0,0 0.13202,0.13645 0.13202,0.13645c0,0 0.13202,0 0.13202,0.13645c0,0 0,0 0,0c0.13202,0.13645 0.03867,0.17641 0.13202,0.27289c0.09335,0.09648 0.13202,0 0.13202,0.13645c0,0 0.13202,0 0.13202,0c0,0.13645 0,0.13645 0.13202,0.27289c0,0 0,0 0,0c0.13202,0.13645 0.13202,0.13645 0.13202,0.13645c0,0 0,0 0,0c0.13202,0.13645 0.13202,0.13645 0.13202,0.13645c0,0 0,0.13645 0.13202,0.13645c0,0 0,0 0,0.13645c0,0 0,0 0,0c0,0 0.03867,-0.09648 0.13202,0c0.09336,0.09648 0,0.13645 0,0.13645c0,0 0,0 0,0c0,0 0,0 0.13202,0c0,0 0,0.13645 0,0.13645c0,0 0,0 0,0c0,0.13645 0,0.13645 0,0.13645c0,0 0,0 0,0c0.13202,0 0.13202,0.13645 0.13202,0.13645c0,0.13645 0,0.13645 0,0.13645c0,0 0.13202,0 0.13202,0c0,0 0,0 0,0c0,0 -0.13202,0 -0.13202,0c0,-0.13645 0,-0.13645 0.13202,-0.13645c0,0 0,0 0,0c0,-0.13645 0.13202,-0.13645 0.13202,-0.13645c0,0 0,0 0,0c0,-0.13645 0.13202,-0.13645 0.13202,-0.13645c0,0 0,0 0,0c0,0 0.13202,0 0.13202,0c0,0 0,-0.13645 0.13202,-0.13645c0,0 0.13202,0 0.13202,-0.13645c0,0 0.13202,0 0.13202,0c0,-0.13645 0.13202,-0.27289 0.26405,-0.27289c0,0 0,0 0.13202,0c0,0 0,-0.13645 0.13202,-0.13645c0,0 0.03867,0.09648 0.13202,0c0.09335,-0.09648 0,-0.13645 0,-0.13645c0,0 0,0 0,0c0.13202,0 0.03867,-0.03996 0.13202,-0.13645c0.09335,-0.09648 0.03867,-0.03996 0.13202,-0.13645c0.09336,-0.09648 0.13202,0 0.13202,0c0,0 0,0 0,-0.13645c0,0 0.13202,0 0.13202,0c0,0 0,-0.13645 0,-0.13645c0.13202,0 0.03867,-0.03996 0.13202,-0.13645c0.09336,-0.09648 0.13202,0 0.13202,0c0,-0.13645 0.13202,-0.13645 0.13202,-0.13645c0,-0.13645 0.03867,-0.17641 0.13202,-0.27289c0.09336,-0.09648 0.13202,0 0.13202,0c0,0 0,-0.13645 0.13202,-0.13645c0,0 0.03867,-0.03997 0.13202,-0.13645c0.09335,-0.09648 0,-0.13645 0,-0.13645c0.13202,0 0.13202,0 0.13202,-0.13645c0,0 0.13202,0 0.13202,0c0,-0.13645 0.03867,-0.17641 0.13202,-0.27289c0.09335,-0.09648 0.03867,-0.17641 0.13202,-0.27289c0.09335,-0.09648 0.13202,0 0.13202,-0.13645c0,0 0.13202,0 0.13202,0c0,-0.13645 0.03867,-0.03996 0.13202,-0.13645c0.09336,-0.09648 0.03867,-0.03997 0.13202,-0.13645c0.09335,-0.09648 0,-0.13644 0.13202,-0.27289c0.13202,-0.13645 0.13202,-0.13645 0.13202,-0.27289c0,0 0.13202,0 0.13202,0c0,-0.13645 0.13202,-0.13645 0.13202,-0.13645c0,0 0,-0.13645 0.13202,-0.13645c0,0 0,-0.13645 0,-0.13645c0,0 0.13202,0 0.13202,0c0,0 0,0 0,0c0,0 0,-0.13645 0.13202,-0.13645c0,0 0,-0.13645 0.13202,-0.13645c0,0 0,0 0.13202,-0.13645c0,0 0.13202,-0.13645 0.13202,-0.13645c0,-0.13645 0.13202,-0.13645 0.13202,-0.13645c0,-0.13645 0.03867,-0.03996 0.13202,-0.13645c0.09336,-0.09648 0.03867,-0.03996 0.13202,-0.13645c0.09335,-0.09648 0,-0.13645 0.13202,-0.27289c0,0 0.13202,-0.13645 0.13202,-0.13645c0,0 0.13202,-0.13645 0.13202,-0.13645c0.13202,0 0.13202,-0.13645 0.13202,-0.13645c0.13202,0 0.13202,-0.13645 0.13202,-0.13645c0,0 0.13202,0 0.13202,0c0,-0.13645 0.01005,-0.08423 0.13202,-0.13645c0.1725,-0.07384 0.14207,-0.08423 0.26405,-0.13645c0.1725,-0.07384 0.13202,-0.27289 0.13202,-0.27289c0.13202,0 0.13202,-0.13645 0.13202,-0.13645c0,0 0.13202,-0.13645 0.13202,-0.13645c0,0 0.13202,0 0.13202,-0.13645c0,0 0,0 0.13202,-0.13645c0,0 0.13202,0 0.13202,0c0,-0.13645 0,-0.13645 0,-0.13645c0,0 0,0 0.13202,-0.13645c0,0 0,0 0,0c0.13202,0 0.13202,-0.13645 0.13202,-0.13645c0,0 0,0 0,0c0,0 0.13202,-0.13645 0.13202,-0.13645c0,-0.13645 0.03867,-0.03996 0.13202,-0.13645c0.09336,-0.09648 0,-0.13645 0,-0.13645c0.13202,0 0.13202,0 0.13202,-0.13645c0,0 0.13202,0 0.13202,-0.13645c0,0 0.13202,-0.13645 0.13202,-0.13645c0,0 0.13202,-0.13645 0.13202,-0.13645c0,0 0,0 0.13202,-0.13645c0,0 0,0 0,0c0.13202,-0.13645 0.13202,-0.13645 0.26405,-0.27289c0,0 0.13202,-0.13645 0.13202,-0.13645c0,0 0.03867,0.09648 0.13202,0c0.09335,-0.09648 0,-0.13645 0,-0.13645c0.13202,-0.13645 0.13202,-0.13645 0.26404,-0.27289c0.13202,-0.13645 0.13202,-0.27289 0.13202,-0.27289c0.13202,-0.13645 0.26405,-0.13645 0.26405,-0.27289c0,0 0.06057,0.04183 0.13202,-0.13645c0.05052,-0.12606 0.06057,-0.09462 0.13202,-0.27289c0.05052,-0.12606 0,-0.13645 0,-0.13645c0,0 0.03867,0.09648 0.13202,0c0.09336,-0.09648 0,-0.13645 0,-0.13645c0,0 0,-0.13645 0,-0.13645c0,0 0.13202,0 0.13202,-0.13645c0,0 0,0 0.13202,-0.13645c0,0 0,-0.13645 0,-0.13645c0,0 0.03867,-0.03996 0.13202,-0.13645c0.09336,-0.09648 0,-0.13645 0,-0.13645c0.13202,-0.13645 0.13202,-0.13645 0.13202,-0.27289c0,0 -0.09336,-0.03996 0,-0.13645c0.09335,-0.09648 0.13202,0 0.13202,-0.13645c0,0 0,0 0,0c0,0 0,-0.13645 0,-0.13645c0.13202,-0.13645 0.13202,-0.13645 0.13202,-0.27289c0,0 0,0 0,-0.13645c0,0 0,0 0.13202,0c0,0 0,-0.13645 0,-0.13645c0,0 0,0 0,0c0,0 0,0 0,-0.13645c0,0 0,0 0,0c0,-0.13645 0,-0.13645 0.13202,-0.27289c0,0 0,-0.13645 0,-0.13645c0,-0.13645 0,-0.13645 0,-0.13645c0.13202,-0.13645 0.13202,-0.27289 0.13202,-0.27289c0,-0.13645 0,-0.13645 0,-0.27289c0,-0.13645 0,-0.13645 0,-0.27289c0,-0.13645 0,-0.13645 0,-0.13645c0,0 0,-0.13645 0,-0.13645c0,0 0,0 0,0c0,-0.13645 0,-0.13645 0,-0.13645c0,0 0,0 0,-0.13645c0,0 0,0 0,0c0,-0.13645 0,-0.13645 0,-0.27289c0,0 0,-0.13645 0,-0.13645c0,-0.13645 0,-0.13645 0,-0.13645c0,-0.13645 -0.13202,-0.13645 -0.13202,-0.27289c0,0 0,-0.13645 0,-0.13645c0,0 0,-0.13645 0,-0.27289c0,0 0,-0.13645 0,-0.13645c0,-0.13645 0,-0.13645 -0.13202,-0.27289c0,0 0,0 0,-0.13645c0,0 0,0 0,-0.13645c0,0 0,-0.13645 0,-0.13645c-0.13202,0 -0.13202,-0.13645 -0.13202,-0.13645c0,0 0,0 0,0c0,-0.13645 0,-0.13645 0,-0.13645c0,0 0,-0.13645 0,-0.13645c0,0 -0.13202,-0.13645 -0.13202,-0.13645c0,0 0,-0.13645 0,-0.13645c0,-0.13645 0,-0.13645 0,-0.13645c-0.13202,-0.13645 -0.13202,-0.13645 -0.13202,-0.27289c0,0 0,0 -0.13202,-0.13645c0,0 0,-0.13645 0,-0.13645c0,0 0,-0.13645 0,-0.13645c-0.13202,0 -0.13202,0 -0.13202,0c0,-0.13645 0,-0.13645 0,-0.13645c0,0 0,0 0,0c0,-0.13645 0,-0.13645 -0.13202,-0.27289c0,0 0,-0.13645 0,-0.13645c-0.13202,0 -0.13202,-0.13645 -0.13202,-0.13645c0,0 0,0 0,0c0,0 -0.13202,-0.13645 -0.13202,-0.13645c0,0 0.09336,-0.03996 0,-0.13645c-0.09335,-0.09648 -0.13202,0 -0.13202,0c0,0 -0.03867,0.09648 -0.13202,0c-0.09335,-0.09648 0,-0.13645 0,-0.13645c0,0 0.09336,-0.03996 0,-0.13645c-0.09336,-0.09648 -0.13202,0 -0.13202,0c0,0 -0.13202,0 -0.13202,-0.13645c0,0 0,0 0,0c0,0 0,0 -0.13202,-0.13645c0,0 0,0 -0.13202,-0.13645c0,0 -0.03867,0.09648 -0.13202,0c-0.09335,-0.09648 0,-0.13645 -0.13202,-0.13645c0,0 0,0 0,0c0,0 0,-0.13645 -0.13202,-0.13645c0,0 0,0 0,0c0,0 0,0 0,0c-0.13202,0 -0.13202,0 -0.13202,-0.13645c0,0 0,0 0,0c-0.13202,0 -0.17069,0.09648 -0.26405,0c-0.09335,-0.09648 0,-0.13645 -0.13202,-0.13645c0,0 0,0 0,0c0,0 -0.13202,0 -0.13202,0c0,-0.13645 -0.13202,-0.13645 -0.13202,-0.13645c0,0 0,0 0,0c0,0 -0.13202,0 -0.13202,0c-0.13202,0 -0.13202,-0.13645 -0.13202,-0.13645c-0.13202,0 -0.13202,0 -0.13202,0c-0.13202,0 -0.13202,0 -0.26405,0c0,0 0,0 -0.13202,0c0,0 0,0 0,0c0,0 0,0 -0.13202,0c0,0 0.09336,-0.03996 0,-0.13645c-0.09335,-0.09648 -0.13202,0 -0.13202,0c0,0 -0.13202,0 -0.13202,0c0,0 0,0 0,0c-0.13202,0 -0.13202,0 -0.13202,0c0,0 -0.13202,0 -0.13202,0c0,0 0,0 0,0c-0.13202,0 -0.13202,0 -0.13202,0c0,0 -0.13202,0 -0.13202,0c0,0 0,0 0,0c-0.13202,0 -0.13202,0 -0.13202,0c0,0 -0.13202,0 -0.26405,0c0,0 0,0 -0.13202,0c0,0 0,0 0,0c-0.13202,0 -0.13202,0 -0.13202,0c0,0 0,0 -0.13202,0c0,0 0,0 0,0c0,0 -0.13202,0 -0.13202,0c0,0 -0.13202,0 -0.13202,0c-0.13202,0 -0.13202,0 -0.13202,0c0,0 0,0 -0.13202,0c0,0 -0.03867,-0.09648 -0.13202,0c-0.09336,0.09648 -0.13202,0.13645 -0.13202,0.13645c0,0 -0.13202,0 -0.13202,0c-0.13202,0 -0.13202,0 -0.13202,0c0,0 -0.13202,0 -0.13202,0c0,0 0,0 0,0c-0.13202,0 -0.13202,0 -0.13202,0c-0.13202,0 -0.13202,0 -0.13202,0c0,0 -0.13202,0.13645 -0.13202,0.13645c0,0 0,0 0,0c0,0 -0.13202,0 -0.13202,0c0,0 0,0 0,0c-0.13202,0 -0.13202,0 -0.13202,0c0,0 0,0 0,0c-0.13202,0.13645 -0.13202,0.13645 -0.13202,0.13645c-0.13202,0 -0.13202,0 -0.13202,0c0,0 -0.13202,0 -0.13202,0c0,0 -0.13202,0 -0.13202,0c0,0.13645 0,0.13645 -0.13202,0.13645c0,0 0,0 -0.13202,0c0,0 -0.13202,0 -0.13202,0c-0.13202,0 -0.13202,0.13645 -0.26405,0.13645c0,0 -0.17069,-0.09648 -0.26405,0c-0.09336,0.09648 0,0.13645 0,0.13645c-0.13202,0 -0.13202,0 -0.13202,0c0,0 0,0 -0.13202,0.13645c0,0 -0.03867,-0.09648 -0.13202,0c-0.09336,0.09648 0,0.13645 0,0.13645c-0.13202,0 -0.13202,0 -0.13202,0c0,0 -0.03867,-0.09648 -0.13202,0c-0.09335,0.09648 0,0.13645 0,0.13645c0,0 0,0 -0.13202,0c0,0 0,0 0,0.13645c0,0 0,0 0,0c-0.13202,0 -0.13202,0 -0.13202,0.13645c0,0 -0.13202,0 -0.13202,0c0,0 0,0.13645 0,0.13645c0,0 0,0 0,0c-0.13202,0 -0.13202,0 -0.13202,0c0,0.13645 0,0.13645 0,0.13645c-0.13202,0 -0.13202,0 -0.13202,0.13645c0,0 0,0 0,0c-0.13202,0 -0.13202,0.13645 -0.13202,0.13645c0,0 0,0 0,0c0,0 -0.13202,0.13645 -0.13202,0.13645c0,0 0,0 0,0c0,0 0,0.13645 -0.13202,0.13645c0,0 0,0.13645 0,0.13645c0,0 -0.13202,0 -0.13202,0c0,0 0,0.13645 0,0.13645c0,0 0,0 -0.13202,0c0,0 0,0.13645 0,0.13645c0,0 -0.13202,0 -0.13202,0c0,0 0,0.13645 0,0.13645c0,0 0,0 0,0c0,0.13645 -0.13202,0.13645 -0.13202,0.13645c0,0 0,0 0,0c0,0.13645 0,0.13645 0,0.13645c0,0 0,0 -0.13202,0c0,0 0.09335,0.03996 0,0.13645c-0.09335,0.09648 -0.13202,0 -0.13202,0c0,0.13645 0,0.13645 -0.13202,0.13645c0,0 0,0 0,0.13645c0,0 -0.03867,-0.09648 -0.13202,0c-0.09335,0.09648 0,0.13645 0,0.13645c0,0 0,0 -0.13202,0c0,0 0,0.13645 0,0.13645c0,0 0,0 -0.13202,0c0,0 0,0 0,0.13645c0,0 0,0 0,0c0,0 0,0 0,0c-0.13202,0 -0.13202,0 -0.13202,0c0,0.13645 0,0.13645 0,0.13645c0,0 0,0 0.13202,0c0,0 0,0 0,0.13645c0,0 0.13202,0 0.13202,0c0,0 0,0 0,0c0,0 0.13202,0 0.13202,0.13645c0,0 0,-0.13645 -0.13202,-0.13645c0,0 0,0 0,0c0,0 0,0 0,0c-0.13202,0 -0.13202,-0.13645 -0.13202,-0.13645c0,0 -0.13202,0 -0.13202,-0.13645c0,0 0,0 0,-0.13645c0,0 -0.13202,0 -0.13202,-0.13645c0,0 0,0 0,0c0,0 0,0 0,-0.13645c0,0 -0.13202,0 -0.13202,0c0,-0.13645 0,-0.13645 0,-0.13645c0,0 0,0 0,0c-0.13202,0 -0.13202,-0.13645 -0.13202,-0.13645c0,0 0,-0.13645 0,-0.13645c0,0 -0.13202,-0.13645 -0.13202,-0.13645c0,0 0,-0.13645 0,-0.13645c0,0 0,0 0,0c0,-0.13645 0,-0.13645 0,-0.13645c0,0 0,-0.13645 0,-0.13645c-0.13202,0 -0.13202,0 -0.13202,0c0,-0.13645 0,-0.13645 0,-0.13645c0,0 0,0 0,-0.13645c0,0 0,0 -0.13202,0c0,0 0,0 0,0c0,-0.13645 0,-0.13645 0,-0.27289c0,0 0,0 0,0c0,0 0,0 0,0l-0.13202,-0.13645" id="svg_24" fill="#ffffff"/>
 </g>

</svg>