<svg width="32" height="32" xmlns="http://www.w3.org/2000/svg" version="1.1">

 <g>
  <title>Layer 1</title>
  <g id="icomoon-ignore"/>
  <path id="svg_1" fill="#ffffff" d="m21.886,5.115c3.521,0 6.376,2.855 6.376,6.376c0,1.809 -0.754,3.439 -1.964,4.6l-10.297,10.349l-10.484,-10.536c-1.1,-1.146 -1.778,-2.699 -1.778,-4.413c0,-3.522 2.855,-6.376 6.376,-6.376c2.652,0 4.925,1.62 5.886,3.924c0.961,-2.304 3.234,-3.924 5.886,-3.924l-0.001,0zm0,-1.066c-2.345,0 -4.499,1.089 -5.886,2.884c-1.386,-1.795 -3.54,-2.884 -5.886,-2.884c-4.104,0 -7.442,3.339 -7.442,7.442c0,1.928 0.737,3.758 2.075,5.152l11.253,11.309l11.053,-11.108c1.46,-1.402 2.275,-3.308 2.275,-5.352c0,-4.104 -3.339,-7.442 -7.442,-7.442l0,0l0,-0.001z"/>
 </g>
</svg>