<svg width="32" height="32" xmlns="http://www.w3.org/2000/svg" version="1.1">
 <title>pause [#1006]</title>
 <desc>Created with Sketch.</desc>

 <g>
  <title>Layer 1</title>
  <g stroke="null" fill-rule="evenodd" fill="none" id="Page-1">
   <g stroke="null" fill="#000000" id="Dribbble-Light-Preview">
    <g stroke="null" id="icons">
     <path fill="#ffffff" stroke="null" id="pause-[#1006]" d="m9.33333,3c-1.84,0 -3.33333,1.49333 -3.33333,3.33333l0,20c0,1.84 1.49333,3.33333 3.33333,3.33333c1.84,0 3.33333,-1.49333 3.33333,-3.33333l0,-20c0,-1.84 -1.49333,-3.33333 -3.33333,-3.33333m16.66667,3.33333l0,20c0,1.84 -1.49333,3.33333 -3.33333,3.33333c-1.84,0 -3.33333,-1.49333 -3.33333,-3.33333l0,-20c0,-1.84 1.49333,-3.33333 3.33333,-3.33333c1.84,0 3.33333,1.49333 3.33333,3.33333"/>
    </g>
   </g>
  </g>
 </g>
</svg>