<svg width="310.42" height="310.42" xmlns="http://www.w3.org/2000/svg" version="1.1" xml:space="preserve">
 <g class="layer">
  <title>Layer 1</title>
  <g transform="rotate(-90 153.71 153.713)" stroke="null" id="svg_1">
   <g stroke="null" id="svg_2">
    <path stroke="null" d="m206.11661,180.16309c21.73894,-21.74475 21.73894,-57.11994 0,-78.85888c-21.73894,-21.73894 -57.11413,-21.73894 -78.85888,0c-18.44904,18.44904 -21.23906,45.87847 -8.38751,67.29772c0,0 0.91838,1.55195 -0.3255,2.79584c-7.11456,7.11456 -28.44663,28.45244 -28.44663,28.45244c-5.66143,5.66143 -7.00994,13.57812 -1.99371,18.60016l0.86607,0.86607c5.02204,5.02204 12.93874,3.67353 18.60016,-1.98789c0,0 21.29138,-21.29138 28.38269,-28.3885c1.30782,-1.30782 2.85396,-0.38363 2.85396,-0.38363c21.41925,12.85155 48.84868,10.05571 67.29772,-8.3817l0.01163,-0.01163zm-68.56486,-10.29984c-16.06589,-16.06589 -16.06589,-42.19912 0,-58.26502c16.06589,-16.06589 42.19912,-16.06589 58.26502,0c16.06589,16.06589 16.06589,42.19912 0,58.26502c-16.06589,16.06589 -42.19912,16.06589 -58.26502,0z" fill="#ffffff" id="svg_3"/>
    <g stroke="null" id="svg_4">
     <path stroke="null" d="m141.11485,137.41759c-0.74982,0 -1.51126,-0.14531 -2.23783,-0.45338c-2.92371,-1.23807 -4.30129,-4.61517 -3.0574,-7.53888c7.78882,-18.39673 29.09182,-27.03418 47.48273,-19.24536c2.92371,1.23807 4.30129,4.61517 3.0574,7.54469c-1.23807,2.92371 -4.61517,4.29548 -7.54469,3.0574c-12.5493,-5.30686 -27.08649,0.58126 -32.39335,13.13637c-0.93001,2.19133 -3.06321,3.51078 -5.30105,3.51078l-0.00581,-0.01163z" fill="#ffffff" id="svg_5"/>
    </g>
   </g>
  </g>
 </g>

</svg>