<svg width="24" height="24" xmlns="http://www.w3.org/2000/svg" fill="none">

 <g>
  <title>Layer 1</title>
  <path id="svg_1" fill="#ffffff" d="m10.4,1.8c1.1532,-1.53762 3.6,-0.72201 3.6,1.20001l0,18.12139c0,1.9325 -2.4687,2.7413 -3.6122,1.1835l-3.89424,-5.3049l-2.49356,0c-1.65685,0 -3,-1.3431 -3,-3l0,-4c0,-1.65685 1.34315,-3 3,-3l2.5,0l3.9,-5.2zm1.6,1.2l-3.9,5.2c-0.37771,0.50361 -0.97049,0.8 -1.6,0.8l-2.5,0c-0.55228,0 -1,0.44772 -1,1l0,4c0,0.5523 0.44772,1 1,1l2.49356,0c0.63675,0 1.23545,0.3032 1.61225,0.8165l3.89419,5.3049l0,-18.1214z" clip-rule="evenodd" fill-rule="evenodd"/>
  <path id="svg_2" fill="#ffffff" d="m16.2137,4.17445c-0.1043,-0.60994 0.3636,-1.17445 0.9824,-1.17445c0.4674,0 0.8687,0.328 0.9503,0.78824c0.2778,1.56523 0.8536,5.17641 0.8536,8.21176c0,3.0353 -0.5758,6.6465 -0.8536,8.2118c-0.0816,0.4602 -0.4829,0.7882 -0.9503,0.7882c-0.6188,0 -1.0867,-0.5645 -0.9824,-1.1744c0.2937,-1.7183 0.7863,-5.0182 0.7863,-7.8256c0,-2.80736 -0.4926,-6.1073 -0.7863,-7.82555z"/>
  <path id="svg_3" fill="#ffffff" d="m21.41,5c-0.6754,0 -1.1698,0.69397 -1.0134,1.35098c0.2792,1.17315 0.6034,3.08692 0.6034,5.64902c0,2.5621 -0.3242,4.4759 -0.6034,5.649c-0.1564,0.657 0.338,1.351 1.0134,1.351c0.3616,0 0.6874,-0.2056 0.8001,-0.5491c0.2933,-0.894 0.7899,-2.9276 0.7899,-6.4509c0,-3.52328 -0.4966,-5.55694 -0.7899,-6.45087c-0.1127,-0.34357 -0.4385,-0.54913 -0.8001,-0.54913z"/>
 </g>
</svg>