<svg width="24" height="24" xmlns="http://www.w3.org/2000/svg" fill="none">

 <g>
  <title>Layer 1</title>
  <path id="svg_1" fill="#ffffff" d="m14,3.00001c0,-1.92202 -2.4468,-2.73763 -3.6,-1.20001l-3.9,5.2l-2.5,0c-1.65685,0 -3,1.34315 -3,3l0,4c0,1.6569 1.34315,3 3,3l2.49356,0l3.89424,5.3049c1.1435,1.5578 3.6122,0.749 3.6122,-1.1835l0,-18.12139zm-5.9,5.19999l3.9,-5.2l0,18.1214l-3.89419,-5.3049c-0.3768,-0.5133 -0.9755,-0.8165 -1.61225,-0.8165l-2.49356,0c-0.55228,0 -1,-0.4477 -1,-1l0,-4c0,-0.55228 0.44772,-1 1,-1l2.5,0c0.62951,0 1.22229,-0.29639 1.6,-0.8z" clip-rule="evenodd" fill-rule="evenodd"/>
  <path id="svg_2" fill="#ffffff" d="m21.2929,8.57094c0.3905,-0.39053 1.0237,-0.39052 1.4142,0c0.3905,0.39052 0.3905,1.02369 0,1.41421l-1.9468,1.94675l1.9468,1.9468c0.3905,0.3905 0.3905,1.0237 0,1.4142c-0.3905,0.3905 -1.0237,0.3905 -1.4142,0l-1.9468,-1.9468l-1.9467,1.9468c-0.3906,0.3905 -1.0237,0.3905 -1.4142,0c-0.3906,-0.3906 -0.3906,-1.0237 0,-1.4142l1.9467,-1.9468l-1.9467,-1.94673c-0.3906,-0.39053 -0.3906,-1.02369 0,-1.41421c0.3905,-0.39053 1.0236,-0.39053 1.4142,0l1.9467,1.94674l1.9468,-1.94676z"/>
 </g>
</svg>